# xmcd CD database file
#
# Track frame offsets:
#	150
#	12032
#	25474
#	38919
#	50530
#	60751
#	69722
#	77879
#	90666
#	119324
#	140396
#	163189
#	175532
#	183588
#	201149
#	220969
#	234728
#	253373
#	275878
#
# Disc length: 3801 seconds
#
# Revision: 0
# Processed by: cddbd v1.5.2PL0 Copyright (c) Steve Scherf et al.
# Submitted via: CDex 1.70beta2
#
DISCID=160ed713
DTITLE=Extrabreit - Zurück aus der Zukunft
DYEAR=1991
DGENRE=New Age
TTITLE0=Hurra, Hurra, Die Schule Brennt	
TTITLE1=Flieger, Grüß Mir Die Sonne	
TTITLE2=Hart Wie Marmelade	
TTITLE3=Salome
TTITLE4=3-D
TTITLE5=Lotto-König	
TTITLE6=Extrabreit
TTITLE7=Kokain
TTITLE8=Der Präsident Ist Tot	
TTITLE9=Junge, Wir Können So Heiß Sein	
TTITLE10=Polizisten
TTITLE11=Alptraumstadt
TTITLE12=Annemarie
TTITLE13=Glück Und Geld	
TTITLE14=Kleptomania
TTITLE15=Der Führer Schenkt Den Klonen Eine Stadt	
TTITLE16=Superhelden
TTITLE17=110
TTITLE18=Allegro Für Annemarie	
EXTD=YEAR: 1991
EXTT0=
EXTT1=
EXTT2=
EXTT3=
EXTT4=
EXTT5=
EXTT6=
EXTT7=
EXTT8=
EXTT9=
EXTT10=
EXTT11=
EXTT12=
EXTT13=
EXTT14=
EXTT15=
EXTT16=
EXTT17=
EXTT18=
PLAYORDER=
